<?xml version="1.0" encoding="utf-8"?>
<!-- Generator: Adobe Illustrator 23.0.2, SVG Export Plug-In . SVG Version: 6.00 Build 0)  -->
<svg version="1.1" id="Layer_1" xmlns="http://www.w3.org/2000/svg" xmlns:xlink="http://www.w3.org/1999/xlink" x="0px" y="0px"
	 viewBox="0 0 1920 1080" style="enable-background:new 0 0 1920 1080;" xml:space="preserve">
<style type="text/css">
	.st0{fill:url(#SVGID_1_);}
	.st1{opacity:0.51;fill:#54E8B7;}
	.st2{opacity:0.6;fill:#54E8B7;}
	.st3{opacity:0.53;fill:#54E8B7;}
	.st4{opacity:0.55;fill:#54E8B7;}
</style>
<g>
	<linearGradient id="SVGID_1_" gradientUnits="userSpaceOnUse" x1="130.7508" y1="1235.8228" x2="1789.2493" y2="-155.8227">
		<stop  offset="0" style="stop-color:#3AB790"/>
		<stop  offset="0.4999" style="stop-color:#3AB19A"/>
		<stop  offset="1" style="stop-color:#3AA9A9"/>
	</linearGradient>
	<rect class="st0" width="1920" height="1080"/>
</g>
<rect x="404" y="95" transform="matrix(0.6137 0.7896 -0.7896 0.6137 302.2218 -306.6756)" class="st1" width="121" height="121"/>
<path class="st2" d="M93,1303L93,1303c-161.82,0-293-131.18-293-293v0c0-161.82,131.18-293,293-293h0c161.82,0,293,131.18,293,293v0
	C386,1171.82,254.82,1303,93,1303z"/>
<rect x="636" y="450" transform="matrix(0.9197 -0.3926 0.3926 0.9197 -147.4638 358.033)" class="st3" width="331" height="179"/>
<rect x="546.47" y="861.48" transform="matrix(0.769 0.6393 -0.6393 0.769 717.9429 -190.2826)" class="st4" width="151.53" height="73.36"/>
</svg>
